<svg width="44" height="42" viewBox="0 0 44 42" fill="none" xmlns="http://www.w3.org/2000/svg">
<path fill-rule="evenodd" clip-rule="evenodd" d="M44 4.5C44 3.30653 43.5033 2.16193 42.6192 1.31802C41.735 0.474106 40.5359 0 39.2855 0L17.2845 0C16.0341 0 14.8349 0.474106 13.9508 1.31802C13.0667 2.16193 12.5699 3.30653 12.5699 4.5V10.317C13.8452 11.292 14.6727 12.7026 14.8769 14.25H25.9277C26.8564 14.25 27.776 14.4246 28.634 14.7638C29.492 15.103 30.2715 15.6002 30.9282 16.227C31.5849 16.8538 32.1058 17.5979 32.4612 18.4169C32.8166 19.2358 32.9995 20.1136 32.9995 21C32.9995 21.8864 32.8166 22.7642 32.4612 23.5831C32.1058 24.4021 31.5849 25.1462 30.9282 25.773C30.2715 26.3998 29.492 26.897 28.634 27.2362C27.776 27.5754 26.8564 27.75 25.9277 27.75H14.8769C14.6727 29.2974 13.8452 30.708 12.5699 31.683V37.5C12.5699 38.6935 13.0667 39.8381 13.9508 40.682C14.8349 41.5259 16.0341 42 17.2845 42H39.2855C40.5359 42 41.735 41.5259 42.6192 40.682C43.5033 39.8381 44 38.6935 44 37.5V4.5ZM9.54323 12.921C9.97401 13.0913 10.3422 13.3797 10.6012 13.7498C10.8603 14.1199 10.9985 14.5549 10.9984 15V18H25.9277C26.7613 18 27.5607 18.3161 28.1502 18.8787C28.7396 19.4413 29.0707 20.2044 29.0707 21C29.0707 21.7956 28.7396 22.5587 28.1502 23.1213C27.5607 23.6839 26.7613 24 25.9277 24H10.9984V27C10.998 27.4447 10.8596 27.8794 10.6005 28.249C10.3415 28.6186 9.97347 28.9067 9.54299 29.0769C9.11251 29.247 8.63887 29.2915 8.18188 29.2049C7.72489 29.1182 7.30506 28.9043 6.9754 28.59L0.689388 22.59C0.247952 22.1681 0 21.5963 0 21C0 20.4037 0.247952 19.8319 0.689388 19.41L6.9754 13.41C7.30483 13.0953 7.72459 12.8809 8.18164 12.7939C8.63869 12.7068 9.11251 12.7511 9.54323 12.921Z" fill="#6A6A6A"/>
</svg>
