<svg width="893" height="489" viewBox="0 0 893 489" fill="none" xmlns="http://www.w3.org/2000/svg">
<path d="M473.578 166.017C469.418 166.017 465.546 165.409 461.962 164.193C458.442 163.041 455.37 161.409 452.746 159.297C450.122 157.249 448.042 154.785 446.506 151.905C445.034 149.089 444.298 146.017 444.298 142.689C444.298 141.473 444.394 139.905 444.586 137.985C444.778 136.065 445.034 133.857 445.354 131.361C445.738 128.865 446.154 126.209 446.602 123.393L459.274 125.121C458.634 129.153 458.122 132.737 457.738 135.873C457.354 139.009 457.162 141.217 457.162 142.497C457.162 144.929 457.834 147.073 459.178 148.929C460.522 150.785 462.41 152.225 464.842 153.249C467.338 154.337 470.25 154.881 473.578 154.881H500.746C504.906 154.881 508.01 153.825 510.058 151.713C512.106 149.601 513.13 146.529 513.13 142.497V138.849H525.898V142.497C525.898 147.105 524.874 151.169 522.826 154.689C520.778 158.209 517.866 160.961 514.09 162.945C510.378 164.993 505.93 166.017 500.746 166.017H473.578ZM508.906 142.209C505.962 142.209 503.114 141.889 500.362 141.249C497.674 140.609 495.114 139.457 492.682 137.793L499.978 128.577C501.002 129.281 501.898 129.825 502.666 130.209C503.498 130.529 504.394 130.753 505.354 130.881C506.378 131.009 507.562 131.073 508.906 131.073H530.122V142.209H508.906ZM530.122 142.209V131.073C530.442 131.073 530.73 131.201 530.986 131.457C531.242 131.713 531.434 132.097 531.562 132.609C531.69 133.121 531.786 133.729 531.85 134.433C531.978 135.073 532.042 135.809 532.042 136.641C532.042 137.473 531.978 138.241 531.85 138.945C531.786 139.649 531.69 140.257 531.562 140.769C531.434 141.217 531.242 141.569 530.986 141.825C530.73 142.081 530.442 142.209 530.122 142.209ZM470.314 185.793V174.849H482.698V185.793H470.314ZM487.786 185.793V174.849H500.17V185.793H487.786ZM547.491 140.673C544.227 137.601 541.763 134.337 540.099 130.881C538.499 127.425 537.699 123.745 537.699 119.841C537.699 116.065 538.403 112.609 539.811 109.473C541.219 106.273 543.139 103.521 545.571 101.217C548.003 98.9135 550.819 97.1535 554.019 95.9375C557.283 94.6575 560.707 94.0175 564.291 94.0175C566.211 94.0175 568.227 94.2095 570.339 94.5935C572.451 94.9775 574.467 95.4895 576.387 96.1295L572.547 106.593C571.203 106.145 569.859 105.793 568.515 105.537C567.235 105.281 565.987 105.153 564.771 105.153C561.955 105.153 559.459 105.793 557.283 107.073C555.107 108.289 553.411 109.985 552.195 112.161C551.043 114.337 550.467 116.833 550.467 119.649C550.467 122.209 550.979 124.609 552.003 126.849C553.091 129.089 554.627 131.105 556.611 132.897L547.491 140.673ZM529.443 142.209V131.073H577.251V142.209H529.443ZM529.443 142.209C529.059 142.209 528.771 142.081 528.579 141.825C528.323 141.569 528.131 141.217 528.003 140.769C527.811 140.257 527.683 139.649 527.619 138.945C527.555 138.241 527.523 137.473 527.523 136.641C527.523 135.489 527.587 134.529 527.715 133.761C527.843 132.929 528.067 132.289 528.387 131.841C528.643 131.329 528.995 131.073 529.443 131.073V142.209ZM633.647 142.209V131.073H643.727V142.209H633.647ZM607.727 166.017C605.359 166.017 602.863 165.825 600.239 165.441C597.679 165.121 594.927 164.673 591.983 164.097L593.903 153.825C597.103 154.209 599.823 154.497 602.063 154.689C604.303 154.881 606.191 154.977 607.727 154.977C612.335 154.977 615.663 154.145 617.711 152.481C619.759 150.817 620.783 148.321 620.783 144.993V102.849L623.951 105.153H611.951C609.327 105.153 607.215 105.473 605.615 106.113C604.015 106.689 602.831 107.937 602.063 109.857C601.359 111.713 601.007 114.561 601.007 118.401C601.007 122.049 601.327 124.801 601.967 126.657C602.671 128.449 603.823 129.633 605.423 130.209C607.023 130.785 609.199 131.073 611.951 131.073H620.783V142.209H611.951C606.511 142.209 602.031 141.345 598.511 139.617C594.991 137.889 592.367 135.265 590.639 131.745C588.975 128.225 588.143 123.777 588.143 118.401C588.143 113.025 588.975 108.545 590.639 104.961C592.367 101.313 594.991 98.5935 598.511 96.8015C602.031 94.9455 606.511 94.0175 611.951 94.0175H633.647V144.993C633.647 149.345 632.559 153.089 630.383 156.225C628.271 159.425 625.263 161.857 621.359 163.521C617.519 165.185 612.975 166.017 607.727 166.017ZM643.727 142.209V131.073C644.111 131.073 644.399 131.201 644.591 131.457C644.847 131.713 645.039 132.097 645.167 132.609C645.359 133.121 645.487 133.729 645.551 134.433C645.615 135.073 645.647 135.809 645.647 136.641C645.647 137.473 645.615 138.241 645.551 138.945C645.487 139.649 645.359 140.257 645.167 140.769C645.039 141.217 644.847 141.569 644.591 141.825C644.399 142.081 644.111 142.209 643.727 142.209ZM710.012 142.209V131.073H720.092V142.209H710.012ZM643.1 142.209V131.073H710.108L699.26 140.481V120.321C699.26 116.673 698.78 113.761 697.82 111.585C696.86 109.345 695.452 107.713 693.596 106.689C691.804 105.665 689.628 105.153 687.068 105.153C684.316 105.153 681.724 105.697 679.292 106.785C676.86 107.873 674.556 109.281 672.38 111.009C670.268 112.737 668.316 114.593 666.524 116.577C664.732 118.561 663.132 120.481 661.724 122.337C660.316 124.129 659.1 125.665 658.076 126.945L655.196 117.633C657.82 114.305 660.252 111.201 662.492 108.321C664.796 105.441 667.196 102.945 669.692 100.833C672.188 98.6575 674.94 96.9935 677.948 95.8415C680.956 94.6255 684.444 94.0175 688.412 94.0175C692.7 94.0175 696.316 94.7535 699.26 96.2255C702.268 97.6335 704.732 99.5855 706.652 102.081C708.572 104.577 709.948 107.393 710.78 110.529C711.612 113.665 712.028 116.929 712.028 120.321V142.209H643.1ZM649.724 131.073V74.3375H662.492V131.073H649.724ZM643.1 142.209C642.716 142.209 642.428 142.081 642.236 141.825C641.98 141.569 641.788 141.217 641.66 140.769C641.468 140.257 641.34 139.649 641.276 138.945C641.212 138.241 641.18 137.473 641.18 136.641C641.18 135.489 641.244 134.529 641.372 133.761C641.5 132.929 641.724 132.289 642.044 131.841C642.3 131.329 642.652 131.073 643.1 131.073V142.209ZM720.092 142.209V131.073C720.476 131.073 720.796 131.201 721.052 131.457C721.308 131.713 721.5 132.097 721.628 132.609C721.756 133.121 721.852 133.729 721.916 134.433C721.98 135.073 722.012 135.809 722.012 136.641C722.012 137.473 721.98 138.241 721.916 138.945C721.852 139.649 721.756 140.257 721.628 140.769C721.5 141.217 721.308 141.569 721.052 141.825C720.796 142.081 720.476 142.209 720.092 142.209ZM719.429 142.209V131.073H742.181L734.693 137.313V94.0175H747.461V142.209H719.429ZM719.429 142.209C719.045 142.209 718.757 142.081 718.565 141.825C718.309 141.569 718.117 141.217 717.989 140.769C717.797 140.257 717.669 139.649 717.605 138.945C717.541 138.241 717.509 137.473 717.509 136.641C717.509 135.489 717.573 134.529 717.701 133.761C717.829 132.929 718.053 132.289 718.373 131.841C718.629 131.329 718.981 131.073 719.429 131.073V142.209ZM726.245 85.1855V74.2415H738.629V85.1855H726.245ZM743.717 85.1855V74.2415H756.101V85.1855H743.717Z" fill="black"/>
<path d="M204.017 62.3447C194.587 62.3447 156.87 115.6 139.19 142.227V263.076H270.808V142.227C252.473 115.6 213.446 62.3447 204.017 62.3447Z" fill="#A7FAFF"/>
<path d="M218.58 15.9973C218.58 24.7116 212.032 50.1842 203.956 50.1842C195.879 50.1842 189.332 24.7116 189.332 15.9973C189.332 7.28305 195.879 0.21875 203.956 0.21875C212.032 0.21875 218.58 7.28305 218.58 15.9973Z" fill="#A7FAFF"/>
<path d="M203.495 332.595C191.581 269.676 201.509 138.913 336.536 119.216C351.098 178.032 344.877 303.05 203.495 332.595Z" fill="#52A2A7"/>
<path d="M358.376 74.0781C344.079 82.285 343.153 100.751 344.476 108.957C351.095 106.906 365.128 100.751 368.305 92.5436C371.482 84.3367 363.01 76.8138 358.376 74.0781Z" fill="#52A2A7"/>
<path d="M203.495 332.595C191.581 269.676 201.509 138.913 336.536 119.216C351.098 178.032 344.877 303.05 203.495 332.595Z" fill="#52A2A7"/>
<path d="M358.376 74.0781C344.079 82.285 343.153 100.751 344.476 108.957C351.095 106.906 365.128 100.751 368.305 92.5436C371.482 84.3367 363.01 76.8138 358.376 74.0781Z" fill="#52A2A7"/>
<path d="M204.462 332.595C216.229 269.676 206.423 138.913 73.0637 119.216C58.6811 178.032 64.8251 303.05 204.462 332.595Z" fill="#3BCAD3"/>
<path d="M51.4929 74.0781C65.6133 82.285 66.5285 100.751 65.2211 108.957C58.6838 106.906 44.8249 100.751 41.687 92.5436C38.5491 84.3367 46.9168 76.8138 51.4929 74.0781Z" fill="#3BCAD3"/>
<path d="M452.896 287.512V233.176H435.232V221.944H483.232V233.176H466.144V287.512H452.896ZM500.329 288.568C495.337 288.568 491.561 287.32 489.001 284.824C486.505 282.264 485.257 278.424 485.257 273.304C485.257 269.72 485.897 266.936 487.177 264.952C488.457 262.904 490.345 261.432 492.841 260.536C495.401 259.576 498.505 259 502.153 258.808L513.865 257.752V254.872C513.865 252.568 513.289 250.968 512.137 250.072C510.985 249.112 509.289 248.632 507.049 248.632C505.257 248.632 503.177 248.696 500.809 248.824C498.505 248.952 496.201 249.112 493.897 249.304C491.657 249.496 489.705 249.688 488.041 249.88L487.657 240.856C489.321 240.472 491.305 240.088 493.609 239.704C495.977 239.256 498.441 238.904 501.001 238.648C503.561 238.392 505.929 238.264 508.105 238.264C512.201 238.264 515.625 238.776 518.377 239.8C521.129 240.824 523.209 242.52 524.617 244.888C526.025 247.192 526.729 250.328 526.729 254.296V276.28C526.857 277.176 527.337 277.88 528.169 278.392C529.001 278.84 529.961 279.16 531.049 279.352L530.761 288.184C529.737 288.184 528.713 288.184 527.689 288.184C526.729 288.248 525.801 288.248 524.905 288.184C524.009 288.184 523.209 288.12 522.505 287.992C521.033 287.8 519.753 287.416 518.665 286.84C517.641 286.264 516.809 285.656 516.169 285.016C515.145 285.464 513.769 285.976 512.041 286.552C510.313 287.128 508.425 287.608 506.377 287.992C504.393 288.376 502.377 288.568 500.329 288.568ZM503.401 279.064C504.617 279.064 505.897 278.936 507.241 278.68C508.585 278.424 509.833 278.136 510.985 277.816C512.201 277.432 513.161 277.08 513.865 276.76V265.72L504.073 266.584C501.961 266.776 500.425 267.416 499.465 268.504C498.569 269.528 498.121 271 498.121 272.92C498.121 274.84 498.537 276.344 499.369 277.432C500.265 278.52 501.609 279.064 503.401 279.064ZM553.697 288.664C550.177 288.664 547.329 288.152 545.153 287.128C542.977 286.104 541.409 284.344 540.449 281.848C539.553 279.288 539.105 275.736 539.105 271.192V249.976H533.441V239.32H539.105V226.552H551.873V239.32H564.161V249.976H551.873V267.832C551.873 270.328 551.969 272.28 552.161 273.688C552.417 275.096 552.929 276.088 553.697 276.664C554.465 277.24 555.649 277.528 557.249 277.528C557.697 277.528 558.369 277.496 559.265 277.432C560.161 277.368 561.057 277.304 561.953 277.24C562.849 277.176 563.585 277.112 564.161 277.048L564.545 287.32C563.585 287.512 562.401 287.704 560.993 287.896C559.649 288.088 558.305 288.248 556.961 288.376C555.681 288.568 554.593 288.664 553.697 288.664ZM583.237 288.568C578.245 288.568 574.469 287.32 571.909 284.824C569.413 282.264 568.165 278.424 568.165 273.304C568.165 269.72 568.805 266.936 570.085 264.952C571.365 262.904 573.253 261.432 575.749 260.536C578.309 259.576 581.413 259 585.061 258.808L596.773 257.752V254.872C596.773 252.568 596.197 250.968 595.045 250.072C593.893 249.112 592.197 248.632 589.957 248.632C588.165 248.632 586.085 248.696 583.717 248.824C581.413 248.952 579.109 249.112 576.805 249.304C574.565 249.496 572.613 249.688 570.949 249.88L570.565 240.856C572.229 240.472 574.213 240.088 576.517 239.704C578.885 239.256 581.349 238.904 583.909 238.648C586.469 238.392 588.837 238.264 591.013 238.264C595.109 238.264 598.533 238.776 601.285 239.8C604.037 240.824 606.117 242.52 607.525 244.888C608.933 247.192 609.637 250.328 609.637 254.296V276.28C609.765 277.176 610.245 277.88 611.077 278.392C611.909 278.84 612.869 279.16 613.957 279.352L613.669 288.184C612.645 288.184 611.621 288.184 610.597 288.184C609.637 288.248 608.709 288.248 607.813 288.184C606.917 288.184 606.117 288.12 605.413 287.992C603.941 287.8 602.661 287.416 601.573 286.84C600.549 286.264 599.717 285.656 599.077 285.016C598.053 285.464 596.677 285.976 594.949 286.552C593.221 287.128 591.333 287.608 589.285 287.992C587.301 288.376 585.285 288.568 583.237 288.568ZM586.309 279.064C587.525 279.064 588.805 278.936 590.149 278.68C591.493 278.424 592.741 278.136 593.893 277.816C595.109 277.432 596.069 277.08 596.773 276.76V265.72L586.981 266.584C584.869 266.776 583.333 267.416 582.373 268.504C581.477 269.528 581.029 271 581.029 272.92C581.029 274.84 581.445 276.344 582.277 277.432C583.173 278.52 584.517 279.064 586.309 279.064ZM625.571 287.512L616.355 239.32H629.987L636.227 276.664H637.667L645.443 240.376H657.731L665.795 276.664H667.235L673.475 239.32H686.243L677.315 287.512H658.019L651.203 256.504L644.387 287.512H625.571ZM712.15 288.568C706.838 288.568 702.614 287.672 699.478 285.88C696.406 284.088 694.198 281.368 692.854 277.72C691.51 274.072 690.838 269.496 690.838 263.992C690.838 258.04 691.67 253.176 693.334 249.4C695.062 245.624 697.558 242.84 700.822 241.048C704.086 239.192 708.118 238.264 712.918 238.264C720.022 238.264 725.366 240.056 728.95 243.64C732.598 247.224 734.422 252.888 734.422 260.632L733.846 267.736H703.702C703.766 271.32 704.502 274.008 705.91 275.8C707.318 277.592 709.75 278.488 713.206 278.488C715.19 278.488 717.366 278.456 719.734 278.392C722.102 278.264 724.438 278.136 726.742 278.008C729.11 277.88 731.126 277.752 732.79 277.624L733.078 286.552C731.478 286.808 729.462 287.096 727.03 287.416C724.598 287.736 722.07 287.992 719.446 288.184C716.886 288.44 714.454 288.568 712.15 288.568ZM703.702 259.576H721.654C721.654 255.224 720.95 252.184 719.542 250.456C718.198 248.728 715.99 247.864 712.918 247.864C710.87 247.864 709.174 248.248 707.83 249.016C706.486 249.784 705.462 251.032 704.758 252.76C704.054 254.488 703.702 256.76 703.702 259.576ZM742.272 287.512V239.32H755.04V287.512H742.272ZM742.272 231.64V220.696H755.136V231.64H742.272Z" fill="black"/>
<path d="M171.645 428.656C169.877 428.587 168.369 428.361 167.121 427.98C165.873 427.599 164.867 427.044 164.105 426.316C163.342 425.588 162.787 424.669 162.441 423.56C162.094 422.451 161.921 421.116 161.921 419.556C161.921 418.967 161.938 418.343 161.973 417.684C162.042 417.025 162.094 416.384 162.129 415.76C162.198 415.24 162.233 414.755 162.233 414.304C162.267 413.853 162.285 413.489 162.285 413.212C162.285 411.756 161.834 410.577 160.933 409.676C160.066 408.74 158.645 407.995 156.669 407.44V404.164C158.679 403.679 160.118 402.985 160.985 402.084C161.851 401.183 162.285 399.987 162.285 398.496C162.285 398.149 162.267 397.733 162.233 397.248C162.198 396.728 162.163 396.191 162.129 395.636C162.094 394.977 162.042 394.319 161.973 393.66C161.938 393.001 161.921 392.412 161.921 391.892C161.921 390.297 162.094 388.945 162.441 387.836C162.787 386.692 163.342 385.756 164.105 385.028C164.902 384.3 165.925 383.763 167.173 383.416C168.421 383.035 169.929 382.809 171.697 382.74L171.749 386.224C170.189 386.293 168.975 386.571 168.109 387.056C167.277 387.541 166.687 388.217 166.341 389.084C166.029 389.916 165.873 390.921 165.873 392.1C165.873 392.551 165.89 393.071 165.925 393.66C165.994 394.249 166.046 394.856 166.081 395.48C166.115 396.035 166.15 396.589 166.185 397.144C166.219 397.664 166.237 398.115 166.237 398.496C166.237 399.952 166.081 401.148 165.769 402.084C165.457 402.985 164.902 403.731 164.105 404.32C163.342 404.875 162.233 405.36 160.777 405.776C162.233 406.192 163.342 406.695 164.105 407.284C164.902 407.873 165.457 408.636 165.769 409.572C166.081 410.508 166.237 411.704 166.237 413.16C166.237 413.507 166.219 413.905 166.185 414.356C166.15 414.772 166.115 415.205 166.081 415.656C166.046 416.28 165.994 416.887 165.925 417.476C165.89 418.065 165.873 418.637 165.873 419.192C165.873 420.336 166.029 421.341 166.341 422.208C166.653 423.075 167.225 423.751 168.057 424.236C168.923 424.756 170.137 425.068 171.697 425.172L171.645 428.656ZM185.947 390.816C185.496 388.701 185.514 387.003 185.999 385.72C186.484 384.403 187.576 383.744 189.275 383.744C190.419 383.744 191.286 384.039 191.875 384.628C192.464 385.217 192.811 386.049 192.915 387.124C193.054 388.164 192.967 389.395 192.655 390.816L190.835 390.452C191.216 388.649 191.268 387.401 190.991 386.708C190.714 385.98 190.142 385.616 189.275 385.616C188.408 385.616 187.836 385.98 187.559 386.708C187.316 387.401 187.386 388.632 187.767 390.4L185.947 390.816ZM182.411 390.816V388.944H192.655V390.816H182.411ZM187.43 422C184.414 422 182.057 421.549 180.358 420.648C178.694 419.712 177.515 418.291 176.822 416.384C176.163 414.443 175.834 411.981 175.834 409C175.834 406.019 176.163 403.575 176.822 401.668C177.515 399.727 178.694 398.305 180.358 397.404C182.057 396.468 184.414 396 187.43 396H198.194V419.92H194.138V397.924L196.218 399.692H187.43C185.419 399.692 183.859 399.935 182.75 400.42C181.675 400.905 180.93 401.824 180.514 403.176C180.098 404.493 179.89 406.435 179.89 409C179.89 411.565 180.098 413.524 180.514 414.876C180.93 416.193 181.675 417.095 182.75 417.58C183.859 418.065 185.419 418.308 187.43 418.308H203.81V422H187.43ZM203.81 422V418.308C204.018 418.308 204.191 418.36 204.33 418.464C204.469 418.533 204.573 418.655 204.642 418.828C204.711 418.967 204.763 419.157 204.798 419.4C204.833 419.608 204.85 419.851 204.85 420.128C204.85 420.405 204.833 420.665 204.798 420.908C204.763 421.151 204.711 421.359 204.642 421.532C204.573 421.671 204.469 421.792 204.33 421.896C204.191 421.965 204.018 422 203.81 422ZM207.04 380.816V378.944H217.284V380.816H207.04ZM210.108 422V384.716H214.164V422H210.108ZM203.816 422V418.308H210.108V422H203.816ZM203.816 422C203.608 422 203.435 421.965 203.296 421.896C203.158 421.792 203.054 421.671 202.984 421.532C202.915 421.359 202.863 421.151 202.828 420.908C202.794 420.665 202.776 420.405 202.776 420.128C202.776 419.747 202.811 419.435 202.88 419.192C202.915 418.915 203.019 418.707 203.192 418.568C203.331 418.395 203.539 418.308 203.816 418.308V422ZM234.088 390.296L232.268 390.816L230.968 386.188L232.788 385.668L234.088 390.296ZM232.268 390.816V388.944H235.752V390.816H232.268ZM236.22 390.816C235.769 388.701 235.786 387.003 236.272 385.72C236.757 384.403 237.849 383.744 239.548 383.744C240.692 383.744 241.558 384.039 242.148 384.628C242.737 385.217 243.084 386.049 243.188 387.124C243.326 388.164 243.24 389.395 242.928 390.816L241.108 390.452C241.489 388.649 241.541 387.401 241.264 386.708C240.986 385.98 240.414 385.616 239.548 385.616C238.681 385.616 238.109 385.98 237.832 386.708C237.589 387.401 237.658 388.632 238.04 390.4L236.22 390.816ZM232.684 390.816V388.944H242.928V390.816H232.684ZM252.787 391.016C251.955 391.016 251.193 390.825 250.499 390.444C249.806 390.028 249.251 389.473 248.835 388.78C248.419 388.087 248.211 387.341 248.211 386.544C248.211 385.677 248.419 384.915 248.835 384.256C249.251 383.563 249.806 383.008 250.499 382.592C251.193 382.176 251.955 381.968 252.787 381.968C253.619 381.968 254.382 382.176 255.075 382.592C255.769 383.008 256.306 383.563 256.687 384.256C257.103 384.915 257.311 385.677 257.311 386.544C257.311 387.341 257.103 388.087 256.687 388.78C256.306 389.473 255.769 390.028 255.075 390.444C254.382 390.825 253.619 391.016 252.787 391.016ZM252.787 389.144C253.515 389.144 254.139 388.884 254.659 388.364C255.179 387.844 255.439 387.237 255.439 386.544C255.439 385.781 255.179 385.14 254.659 384.62C254.139 384.1 253.515 383.84 252.787 383.84C252.025 383.84 251.383 384.1 250.863 384.62C250.343 385.14 250.083 385.781 250.083 386.544C250.083 387.237 250.343 387.844 250.863 388.364C251.383 388.884 252.025 389.144 252.787 389.144ZM250.779 422V396H254.835V419.816L252.963 418.308H260.451V422H250.779ZM239.547 404.84V401.096H250.779V404.84H239.547ZM230.031 433.492C229.58 433.492 229.112 433.457 228.626 433.388C228.106 433.353 227.604 433.319 227.118 433.284L227.586 429.592C228.072 429.627 228.522 429.661 228.938 429.696C229.354 429.765 229.719 429.8 230.031 429.8C231.66 429.8 232.977 429.176 233.983 427.928C234.988 426.715 235.491 425.016 235.491 422.832V396H239.547V422.832C239.547 424.947 239.131 426.801 238.299 428.396C237.501 430.025 236.392 431.273 234.971 432.14C233.549 433.041 231.903 433.492 230.031 433.492ZM260.451 422V418.308C260.659 418.308 260.832 418.36 260.971 418.464C261.109 418.533 261.213 418.655 261.283 418.828C261.352 418.967 261.404 419.157 261.439 419.4C261.473 419.608 261.491 419.851 261.491 420.128C261.491 420.405 261.473 420.665 261.439 420.908C261.404 421.151 261.352 421.359 261.283 421.532C261.213 421.671 261.109 421.792 260.971 421.896C260.832 421.965 260.659 422 260.451 422ZM247.243 431.36V426.68H251.299V431.36H247.243ZM254.367 431.36V426.68H258.423V431.36H254.367ZM268.384 383.816V381.944H278.628V383.816H268.384ZM260.438 422V418.308H283.37L282.122 419.4V406.504C282.122 404.251 281.411 402.569 279.99 401.46C278.603 400.316 276.471 399.744 273.594 399.744C272.692 399.744 271.392 399.831 269.694 400.004C267.995 400.143 266.21 400.351 264.338 400.628L263.869 397.3C265.291 396.953 266.851 396.659 268.55 396.416C270.248 396.139 271.895 396 273.49 396C276.124 396 278.378 396.416 280.25 397.248C282.156 398.045 283.612 399.224 284.618 400.784C285.658 402.344 286.178 404.251 286.178 406.504V422H260.438ZM260.438 422C260.229 422 260.056 421.965 259.917 421.896C259.779 421.792 259.675 421.671 259.605 421.532C259.536 421.359 259.484 421.151 259.449 420.908C259.415 420.665 259.397 420.405 259.397 420.128C259.397 419.747 259.432 419.435 259.501 419.192C259.536 418.915 259.64 418.707 259.813 418.568C259.952 418.395 260.16 418.308 260.438 418.308V422ZM271.462 392.412V387.732H275.518V392.412H271.462ZM309.77 390.816V388.944H320.014V390.816H309.77ZM325.147 422V418.308H330.763V422H325.147ZM312.823 433.492C311.61 433.492 310.31 433.388 308.923 433.18C307.571 433.007 306.08 432.747 304.451 432.4L305.075 429.124C306.912 429.367 308.438 429.54 309.651 429.644C310.899 429.748 311.956 429.8 312.823 429.8C315.7 429.8 317.798 429.245 319.115 428.136C320.432 427.061 321.091 425.484 321.091 423.404V398.34L323.171 399.692H314.383C312.372 399.692 310.812 399.935 309.703 400.42C308.628 400.905 307.883 401.824 307.467 403.176C307.051 404.493 306.843 406.435 306.843 409C306.843 411.565 307.051 413.524 307.467 414.876C307.883 416.193 308.628 417.095 309.703 417.58C310.812 418.065 312.372 418.308 314.383 418.308H321.091V422H314.383C311.367 422 309.01 421.549 307.311 420.648C305.647 419.712 304.468 418.291 303.775 416.384C303.116 414.443 302.787 411.981 302.787 409C302.787 406.019 303.116 403.575 303.775 401.668C304.468 399.727 305.647 398.305 307.311 397.404C309.01 396.468 311.367 396 314.383 396H325.147V423.352C325.147 425.501 324.644 427.339 323.639 428.864C322.668 430.389 321.264 431.533 319.427 432.296C317.59 433.093 315.388 433.492 312.823 433.492ZM330.763 422V418.308C330.971 418.308 331.144 418.36 331.283 418.464C331.422 418.533 331.526 418.655 331.595 418.828C331.664 418.967 331.716 419.157 331.751 419.4C331.786 419.608 331.803 419.851 331.803 420.128C331.803 420.405 331.786 420.665 331.751 420.908C331.716 421.151 331.664 421.359 331.595 421.532C331.526 421.671 331.422 421.792 331.283 421.896C331.144 421.965 330.971 422 330.763 422ZM344.283 390.816C343.832 388.701 343.85 387.003 344.335 385.72C344.82 384.403 345.912 383.744 347.611 383.744C348.755 383.744 349.622 384.039 350.211 384.628C350.8 385.217 351.147 386.049 351.251 387.124C351.39 388.164 351.303 389.395 350.991 390.816L349.171 390.452C349.552 388.649 349.604 387.401 349.327 386.708C349.05 385.98 348.478 385.616 347.611 385.616C346.744 385.616 346.172 385.98 345.895 386.708C345.652 387.401 345.722 388.632 346.103 390.4L344.283 390.816ZM340.747 390.816V388.944H350.991V390.816H340.747ZM330.77 422V418.308H359.474L355.47 422V409.26C355.47 406.868 355.192 404.979 354.638 403.592C354.083 402.205 353.147 401.217 351.83 400.628C350.512 400.004 348.727 399.692 346.474 399.692C344.914 399.692 343.423 399.796 342.002 400.004C340.58 400.212 339.454 400.489 338.622 400.836L341.066 398.34C340.858 399.172 340.65 400.229 340.442 401.512C340.268 402.76 340.112 404.129 339.974 405.62C339.835 407.076 339.766 408.532 339.766 409.988C339.766 411.479 339.835 412.935 339.974 414.356C340.112 415.743 340.268 416.956 340.442 417.996C340.615 419.036 340.754 419.764 340.858 420.18L337.01 421.272C336.871 420.821 336.698 420.041 336.49 418.932C336.282 417.788 336.091 416.453 335.918 414.928C335.779 413.368 335.71 411.721 335.71 409.988C335.71 408.255 335.779 406.573 335.918 404.944C336.091 403.315 336.299 401.859 336.542 400.576C336.784 399.259 336.992 398.201 337.166 397.404C337.928 397.092 339.142 396.78 340.806 396.468C342.47 396.156 344.324 396 346.37 396C349.282 396 351.708 396.433 353.65 397.3C355.591 398.167 357.047 399.571 358.018 401.512C358.988 403.419 359.474 406.001 359.474 409.26V422H330.77ZM346.318 434.844C344.307 434.844 342.47 434.74 340.806 434.532C339.142 434.359 337.928 434.168 337.166 433.96C336.992 433.44 336.784 432.764 336.542 431.932C336.299 431.135 336.091 430.216 335.918 429.176C335.779 428.136 335.71 427.061 335.71 425.952C335.71 424.843 335.779 423.803 335.918 422.832C336.091 421.861 336.282 421.029 336.49 420.336C336.698 419.608 336.871 419.105 337.01 418.828L340.65 420.336C340.546 420.613 340.424 421.081 340.286 421.74C340.147 422.399 340.026 423.109 339.922 423.872C339.818 424.669 339.766 425.397 339.766 426.056C339.766 426.749 339.818 427.495 339.922 428.292C340.026 429.089 340.164 429.869 340.338 430.632C340.546 431.395 340.754 432.071 340.962 432.66L338.258 430.372C339.055 430.615 340.216 430.805 341.742 430.944C343.302 431.083 344.879 431.152 346.474 431.152C348.866 431.152 350.703 430.996 351.986 430.684C353.303 430.372 354.204 429.869 354.69 429.176C355.21 428.483 355.47 427.564 355.47 426.42V418.308H359.474V426.42C359.474 428.465 358.988 430.112 358.018 431.36C357.047 432.608 355.591 433.492 353.65 434.012C351.708 434.567 349.264 434.844 346.318 434.844ZM359.474 422V418.308H365.09V422H359.474ZM365.09 422V418.308C365.298 418.308 365.471 418.36 365.61 418.464C365.748 418.533 365.852 418.655 365.922 418.828C365.991 418.967 366.043 419.157 366.078 419.4C366.112 419.608 366.13 419.851 366.13 420.128C366.13 420.405 366.112 420.665 366.078 420.908C366.043 421.151 365.991 421.359 365.922 421.532C365.852 421.671 365.748 421.792 365.61 421.896C365.471 421.965 365.298 422 365.09 422ZM330.77 422C330.562 422 330.388 421.965 330.25 421.896C330.111 421.792 330.007 421.671 329.938 421.532C329.868 421.359 329.816 421.151 329.782 420.908C329.747 420.665 329.73 420.405 329.73 420.128C329.73 419.747 329.764 419.435 329.834 419.192C329.868 418.915 329.972 418.707 330.146 418.568C330.284 418.395 330.492 418.308 330.77 418.308V422ZM377.614 382.816V380.944H387.858V382.816H377.614ZM365.098 422V418.308H391.358L388.654 420.648V397.924L390.786 399.692H381.946C379.935 399.692 378.375 399.935 377.266 400.42C376.191 400.905 375.446 401.824 375.03 403.176C374.614 404.493 374.406 406.435 374.406 409C374.406 411.565 374.614 413.524 375.03 414.876C375.446 416.193 376.191 417.095 377.266 417.58C378.375 418.065 379.935 418.308 381.946 418.308V420.96C378.93 420.96 376.572 420.596 374.874 419.868C373.21 419.105 372.031 417.857 371.338 416.124C370.679 414.356 370.35 411.981 370.35 409C370.35 406.019 370.679 403.575 371.338 401.668C372.031 399.727 373.21 398.305 374.874 397.404C376.572 396.468 378.93 396 381.946 396H392.71V422H365.098ZM365.098 422C364.89 422 364.716 421.965 364.578 421.896C364.439 421.792 364.335 421.671 364.266 421.532C364.196 421.359 364.144 421.151 364.11 420.908C364.075 420.665 364.058 420.405 364.058 420.128C364.058 419.747 364.092 419.435 364.162 419.192C364.196 418.915 364.3 418.707 364.474 418.568C364.612 418.395 364.82 418.308 365.098 418.308V422ZM380.698 391.32V386.64H384.754V391.32H380.698ZM413.101 422V384.716H417.105V422H413.101ZM424.892 390.856V388.984H435.136V390.856H424.892ZM424.892 386.28V384.408H435.136V386.28H424.892ZM445.299 391.016C444.467 391.016 443.704 390.825 443.011 390.444C442.318 390.028 441.763 389.473 441.347 388.78C440.931 388.087 440.723 387.341 440.723 386.544C440.723 385.677 440.931 384.915 441.347 384.256C441.763 383.563 442.318 383.008 443.011 382.592C443.704 382.176 444.467 381.968 445.299 381.968C446.131 381.968 446.894 382.176 447.587 382.592C448.28 383.008 448.818 383.563 449.199 384.256C449.615 384.915 449.823 385.677 449.823 386.544C449.823 387.341 449.615 388.087 449.199 388.78C448.818 389.473 448.28 390.028 447.587 390.444C446.894 390.825 446.131 391.016 445.299 391.016ZM445.299 389.144C446.027 389.144 446.651 388.884 447.171 388.364C447.691 387.844 447.951 387.237 447.951 386.544C447.951 385.781 447.691 385.14 447.171 384.62C446.651 384.1 446.027 383.84 445.299 383.84C444.536 383.84 443.895 384.1 443.375 384.62C442.855 385.14 442.595 385.781 442.595 386.544C442.595 387.237 442.855 387.844 443.375 388.364C443.895 388.884 444.536 389.144 445.299 389.144ZM443.29 422V396H447.346V419.816L445.474 418.308H452.962V422H443.29ZM432.058 404.84V401.096H443.29V404.84H432.058ZM422.542 433.492C422.092 433.492 421.624 433.457 421.138 433.388C420.618 433.353 420.116 433.319 419.63 433.284L420.098 429.592C420.584 429.627 421.034 429.661 421.45 429.696C421.866 429.765 422.23 429.8 422.542 429.8C424.172 429.8 425.489 429.176 426.494 427.928C427.5 426.715 428.002 425.016 428.002 422.832V396H432.058V422.832C432.058 424.947 431.642 426.801 430.81 428.396C430.013 430.025 428.904 431.273 427.482 432.14C426.061 433.041 424.414 433.492 422.542 433.492ZM452.962 422V418.308C453.17 418.308 453.344 418.36 453.482 418.464C453.621 418.533 453.725 418.655 453.794 418.828C453.864 418.967 453.916 419.157 453.95 419.4C453.985 419.608 454.002 419.851 454.002 420.128C454.002 420.405 453.985 420.665 453.95 420.908C453.916 421.151 453.864 421.359 453.794 421.532C453.725 421.671 453.621 421.792 453.482 421.896C453.344 421.965 453.17 422 452.962 422ZM439.754 431.36V426.68H443.81V431.36H439.754ZM446.878 431.36V426.68H450.934V431.36H446.878ZM460.895 383.816V381.944H471.139V383.816H460.895ZM452.949 422V418.308H475.881L474.633 419.4V406.504C474.633 404.251 473.923 402.569 472.501 401.46C471.115 400.316 468.983 399.744 466.105 399.744C465.204 399.744 463.904 399.831 462.205 400.004C460.507 400.143 458.721 400.351 456.849 400.628L456.381 397.3C457.803 396.953 459.363 396.659 461.061 396.416C462.76 396.139 464.407 396 466.001 396C468.636 396 470.889 396.416 472.761 397.248C474.668 398.045 476.124 399.224 477.129 400.784C478.169 402.344 478.689 404.251 478.689 406.504V422H452.949ZM452.949 422C452.741 422 452.568 421.965 452.429 421.896C452.291 421.792 452.187 421.671 452.117 421.532C452.048 421.359 451.996 421.151 451.961 420.908C451.927 420.665 451.909 420.405 451.909 420.128C451.909 419.747 451.944 419.435 452.013 419.192C452.048 418.915 452.152 418.707 452.325 418.568C452.464 418.395 452.672 418.308 452.949 418.308V422ZM463.973 392.412V387.732H468.029V392.412H463.973ZM503.806 390.816V388.944H514.05V390.816H503.806ZM507.623 438.536C505.092 438.536 502.891 438.137 501.019 437.34C499.181 436.577 497.76 435.433 496.755 433.908C495.784 432.383 495.299 430.545 495.299 428.396C495.299 426.247 495.784 424.409 496.755 422.884C497.76 421.393 499.181 420.267 501.019 419.504C502.891 418.707 505.109 418.308 507.675 418.308H518.231V422H507.675C504.797 422 502.683 422.537 501.331 423.612C500.013 424.721 499.355 426.333 499.355 428.448C499.355 430.528 500.013 432.105 501.331 433.18C502.683 434.289 504.78 434.844 507.623 434.844C508.489 434.844 509.547 434.792 510.795 434.688C512.043 434.584 513.568 434.411 515.371 434.168L515.995 437.444C514.365 437.791 512.857 438.051 511.471 438.224C510.119 438.432 508.836 438.536 507.623 438.536ZM503.047 421.844C501.175 420.249 499.736 418.429 498.731 416.384C497.76 414.304 497.275 412.103 497.275 409.78C497.275 407.804 497.621 405.984 498.315 404.32C499.008 402.621 499.961 401.148 501.175 399.9C502.388 398.652 503.827 397.699 505.491 397.04C507.155 396.347 508.94 396 510.847 396C511.852 396 512.927 396.104 514.071 396.312C515.249 396.52 516.376 396.815 517.451 397.196L516.047 400.68C515.18 400.368 514.296 400.125 513.395 399.952C512.528 399.779 511.696 399.692 510.899 399.692C509.027 399.692 507.363 400.125 505.907 400.992C504.485 401.859 503.359 403.055 502.527 404.58C501.695 406.071 501.279 407.804 501.279 409.78C501.279 411.583 501.66 413.281 502.423 414.876C503.185 416.436 504.26 417.823 505.647 419.036L503.047 421.844ZM538.618 390.692C537.474 390.692 536.607 390.276 536.018 389.444C535.428 388.577 535.134 387.399 535.134 385.908V384.296H537.006V385.908C537.006 386.983 537.144 387.745 537.422 388.196C537.699 388.612 538.098 388.82 538.618 388.82C539.415 388.82 539.935 388.387 540.178 387.52C540.455 386.653 540.42 385.249 540.074 383.308L541.894 382.944C542.344 385.336 542.31 387.225 541.79 388.612C541.27 389.999 540.212 390.692 538.618 390.692ZM533.522 390.692C531.927 390.692 530.87 389.999 530.35 388.612C529.83 387.225 529.795 385.336 530.246 382.944L532.066 383.308C531.719 385.249 531.684 386.653 531.962 387.52C532.239 388.387 532.759 388.82 533.522 388.82C534.042 388.82 534.44 388.612 534.718 388.196C534.995 387.745 535.134 386.983 535.134 385.908V384.296H537.006V385.908C537.006 387.399 536.711 388.577 536.122 389.444C535.532 390.276 534.666 390.692 533.522 390.692ZM530.922 381.436V379.564H541.166V381.436H530.922ZM546.35 422V418.308H551.966V422H546.35ZM534.026 433.492C532.813 433.492 531.513 433.388 530.126 433.18C528.774 433.007 527.283 432.747 525.654 432.4L526.278 429.124C528.115 429.367 529.641 429.54 530.854 429.644C532.102 429.748 533.159 429.8 534.026 429.8C536.903 429.8 539.001 429.245 540.318 428.136C541.635 427.061 542.294 425.484 542.294 423.404V398.34L544.374 399.692H535.586C533.575 399.692 532.015 399.935 530.906 400.42C529.831 400.905 529.086 401.824 528.67 403.176C528.254 404.493 528.046 406.435 528.046 409C528.046 411.565 528.254 413.524 528.67 414.876C529.086 416.193 529.831 417.095 530.906 417.58C532.015 418.065 533.575 418.308 535.586 418.308H542.294V422H535.586C532.57 422 530.213 421.549 528.514 420.648C526.85 419.712 525.671 418.291 524.978 416.384C524.319 414.443 523.99 411.981 523.99 409C523.99 406.019 524.319 403.575 524.978 401.668C525.671 399.727 526.85 398.305 528.514 397.404C530.213 396.468 532.57 396 535.586 396H546.35V423.352C546.35 425.501 545.847 427.339 544.842 428.864C543.871 430.389 542.467 431.533 540.63 432.296C538.793 433.093 536.591 433.492 534.026 433.492ZM551.966 422V418.308C552.174 418.308 552.347 418.36 552.486 418.464C552.625 418.533 552.729 418.655 552.798 418.828C552.867 418.967 552.919 419.157 552.954 419.4C552.989 419.608 553.006 419.851 553.006 420.128C553.006 420.405 552.989 420.665 552.954 420.908C552.919 421.151 552.867 421.359 552.798 421.532C552.729 421.671 552.625 421.792 552.486 421.896C552.347 421.965 552.174 422 551.966 422ZM566.52 390.816V388.944H576.764V390.816H566.52ZM585.305 422V418.308H590.921V422H585.305ZM551.973 422V418.308H586.449L582.705 421.688V409.468C582.705 407.284 582.393 405.481 581.769 404.06C581.179 402.604 580.278 401.512 579.065 400.784C577.886 400.056 576.395 399.692 574.593 399.692C573.067 399.692 571.646 399.952 570.329 400.472C569.046 400.957 567.85 401.616 566.741 402.448C565.631 403.245 564.591 404.147 563.621 405.152C562.685 406.123 561.818 407.111 561.021 408.116C560.223 409.121 559.495 410.04 558.837 410.872L557.485 407.18C558.559 405.828 559.651 404.493 560.761 403.176C561.87 401.859 563.083 400.663 564.401 399.588C565.718 398.513 567.209 397.647 568.873 396.988C570.537 396.329 572.443 396 574.593 396C577.054 396 579.065 396.416 580.625 397.248C582.219 398.08 583.45 399.189 584.317 400.576C585.218 401.928 585.842 403.384 586.189 404.944C586.535 406.504 586.709 408.012 586.709 409.468V422H551.973ZM555.405 418.308V384.716H559.461V418.308H555.405ZM551.973 422C551.765 422 551.591 421.965 551.453 421.896C551.314 421.792 551.21 421.671 551.141 421.532C551.071 421.359 551.019 421.151 550.985 420.908C550.95 420.665 550.933 420.405 550.933 420.128C550.933 419.747 550.967 419.435 551.037 419.192C551.071 418.915 551.175 418.707 551.349 418.568C551.487 418.395 551.695 418.308 551.973 418.308V422ZM590.921 422V418.308C591.129 418.308 591.302 418.36 591.441 418.464C591.579 418.533 591.683 418.655 591.753 418.828C591.822 418.967 591.874 419.157 591.909 419.4C591.943 419.608 591.961 419.851 591.961 420.128C591.961 420.405 591.943 420.665 591.909 420.908C591.874 421.151 591.822 421.359 591.753 421.532C591.683 421.671 591.579 421.792 591.441 421.896C591.302 421.965 591.129 422 590.921 422ZM593.485 381.816V379.944H603.729V381.816H593.485ZM590.922 422V418.308H598.41L596.538 419.816V396H600.594V422H590.922ZM590.922 422C590.714 422 590.541 421.965 590.402 421.896C590.263 421.792 590.159 421.671 590.09 421.532C590.021 421.359 589.969 421.151 589.934 420.908C589.899 420.665 589.882 420.405 589.882 420.128C589.882 419.747 589.917 419.435 589.986 419.192C590.021 418.915 590.125 418.707 590.298 418.568C590.437 418.395 590.645 418.308 590.922 418.308V422ZM593.002 391.32V386.64H597.058V391.32H593.002ZM600.126 391.32V386.64H604.182V391.32H600.126ZM632.682 388.016C631.85 388.016 631.087 387.825 630.394 387.444C629.701 387.028 629.146 386.473 628.73 385.78C628.314 385.087 628.106 384.341 628.106 383.544C628.106 382.677 628.314 381.915 628.73 381.256C629.146 380.563 629.701 380.008 630.394 379.592C631.087 379.176 631.85 378.968 632.682 378.968C633.514 378.968 634.277 379.176 634.97 379.592C635.663 380.008 636.201 380.563 636.582 381.256C636.998 381.915 637.206 382.677 637.206 383.544C637.206 384.341 636.998 385.087 636.582 385.78C636.201 386.473 635.663 387.028 634.97 387.444C634.277 387.825 633.514 388.016 632.682 388.016ZM632.682 386.144C633.41 386.144 634.034 385.884 634.554 385.364C635.074 384.844 635.334 384.237 635.334 383.544C635.334 382.781 635.074 382.14 634.554 381.62C634.034 381.1 633.41 380.84 632.682 380.84C631.919 380.84 631.278 381.1 630.758 381.62C630.238 382.14 629.978 382.781 629.978 383.544C629.978 384.237 630.238 384.844 630.758 385.364C631.278 385.884 631.919 386.144 632.682 386.144ZM646.943 422V418.308H652.559V422H646.943ZM632.903 434.896C630.164 434.896 627.686 434.393 625.467 433.388C623.248 432.383 621.498 430.979 620.215 429.176C618.932 427.373 618.291 425.311 618.291 422.988C618.291 422.26 618.343 421.307 618.447 420.128C618.586 418.915 618.742 417.58 618.915 416.124C619.123 414.633 619.348 413.143 619.591 411.652C619.834 410.127 620.059 408.688 620.267 407.336L624.271 407.96C623.89 410.352 623.543 412.571 623.231 414.616C622.954 416.627 622.728 418.36 622.555 419.816C622.416 421.237 622.347 422.295 622.347 422.988C622.347 424.583 622.78 425.987 623.647 427.2C624.548 428.448 625.796 429.419 627.391 430.112C628.986 430.84 630.823 431.204 632.903 431.204C634.983 431.204 636.768 430.875 638.259 430.216C639.75 429.557 640.894 428.639 641.691 427.46C642.488 426.281 642.887 424.895 642.887 423.3V396H646.943V423.3C646.943 425.727 646.302 427.807 645.019 429.54C643.771 431.273 642.09 432.591 639.975 433.492C637.86 434.428 635.503 434.896 632.903 434.896ZM652.559 422V418.308C652.767 418.308 652.94 418.36 653.079 418.464C653.218 418.533 653.322 418.655 653.391 418.828C653.46 418.967 653.512 419.157 653.547 419.4C653.582 419.608 653.599 419.851 653.599 420.128C653.599 420.405 653.582 420.665 653.547 420.908C653.512 421.151 653.46 421.359 653.391 421.532C653.322 421.671 653.218 421.792 653.079 421.896C652.94 421.965 652.767 422 652.559 422ZM630.667 396V391.32H634.723V396H630.667ZM663.665 390.816V388.944H673.909V390.816H663.665ZM682.054 422V418.308H687.67V422H682.054ZM652.57 422C652.362 422 652.189 421.965 652.05 421.896C651.912 421.792 651.808 421.671 651.738 421.532C651.669 421.359 651.617 421.151 651.582 420.908C651.548 420.665 651.53 420.405 651.53 420.128C651.53 419.747 651.565 419.435 651.634 419.192C651.669 418.915 651.773 418.707 651.946 418.568C652.085 418.395 652.293 418.308 652.57 418.308V422ZM652.57 422V418.308H681.014L677.998 420.44V409.26C677.998 406.833 677.721 404.927 677.166 403.54C676.612 402.153 675.658 401.165 674.306 400.576C672.989 399.987 671.186 399.692 668.898 399.692C667.442 399.692 665.986 399.796 664.53 400.004C663.109 400.212 662 400.489 661.202 400.836L663.646 398.34C663.438 399.172 663.23 400.229 663.022 401.512C662.814 402.76 662.641 404.112 662.502 405.568C662.364 407.024 662.294 408.48 662.294 409.936C662.294 411.427 662.364 412.883 662.502 414.304C662.641 415.725 662.797 416.956 662.97 417.996C663.144 419.036 663.282 419.764 663.386 420.18L659.538 421.272C659.4 420.821 659.226 420.041 659.018 418.932C658.845 417.823 658.672 416.488 658.498 414.928C658.36 413.368 658.29 411.704 658.29 409.936C658.29 408.237 658.36 406.591 658.498 404.996C658.672 403.367 658.862 401.893 659.07 400.576C659.313 399.259 659.538 398.201 659.746 397.404C660.509 397.092 661.722 396.78 663.386 396.468C665.05 396.156 666.888 396 668.898 396C671.81 396 674.237 396.433 676.178 397.3C678.154 398.167 679.628 399.571 680.598 401.512C681.569 403.419 682.054 406.001 682.054 409.26V422H652.57ZM687.67 422V418.308C687.878 418.308 688.052 418.36 688.19 418.464C688.329 418.533 688.433 418.655 688.502 418.828C688.572 418.967 688.624 419.157 688.658 419.4C688.693 419.608 688.71 419.851 688.71 420.128C688.71 420.405 688.693 420.665 688.658 420.908C688.624 421.151 688.572 421.359 688.502 421.532C688.433 421.671 688.329 421.792 688.19 421.896C688.052 421.965 687.878 422 687.67 422ZM700.177 382.816V380.944H710.421V382.816H700.177ZM687.66 422V418.308H713.92L711.216 420.648V397.924L713.348 399.692H704.508C702.497 399.692 700.937 399.935 699.828 400.42C698.753 400.905 698.008 401.824 697.592 403.176C697.176 404.493 696.968 406.435 696.968 409C696.968 411.565 697.176 413.524 697.592 414.876C698.008 416.193 698.753 417.095 699.828 417.58C700.937 418.065 702.497 418.308 704.508 418.308V420.96C701.492 420.96 699.135 420.596 697.436 419.868C695.772 419.105 694.593 417.857 693.9 416.124C693.241 414.356 692.912 411.981 692.912 409C692.912 406.019 693.241 403.575 693.9 401.668C694.593 399.727 695.772 398.305 697.436 397.404C699.135 396.468 701.492 396 704.508 396H715.272V422H687.66ZM687.66 422C687.452 422 687.279 421.965 687.14 421.896C687.001 421.792 686.897 421.671 686.828 421.532C686.759 421.359 686.707 421.151 686.672 420.908C686.637 420.665 686.62 420.405 686.62 420.128C686.62 419.747 686.655 419.435 686.724 419.192C686.759 418.915 686.863 418.707 687.036 418.568C687.175 418.395 687.383 418.308 687.66 418.308V422ZM703.26 391.32V386.64H707.316V391.32H703.26ZM721.378 428.656L721.326 425.172C722.921 425.068 724.134 424.756 724.966 424.236C725.798 423.751 726.37 423.075 726.682 422.208C726.994 421.341 727.15 420.336 727.15 419.192C727.15 418.637 727.133 418.065 727.098 417.476C727.063 416.887 727.011 416.28 726.942 415.656C726.907 415.205 726.873 414.772 726.838 414.356C726.803 413.905 726.786 413.507 726.786 413.16C726.786 411.704 726.942 410.508 727.254 409.572C727.566 408.636 728.121 407.873 728.918 407.284C729.715 406.695 730.825 406.192 732.246 405.776C730.825 405.36 729.715 404.875 728.918 404.32C728.121 403.731 727.566 402.985 727.254 402.084C726.942 401.148 726.786 399.952 726.786 398.496C726.786 398.115 726.803 397.664 726.838 397.144C726.873 396.589 726.907 396.035 726.942 395.48C727.011 394.856 727.063 394.249 727.098 393.66C727.133 393.071 727.15 392.551 727.15 392.1C727.15 390.921 726.977 389.916 726.63 389.084C726.318 388.217 725.746 387.541 724.914 387.056C724.082 386.571 722.869 386.293 721.274 386.224L721.326 382.74C723.094 382.809 724.602 383.035 725.85 383.416C727.098 383.763 728.103 384.3 728.866 385.028C729.663 385.756 730.235 386.692 730.582 387.836C730.929 388.945 731.102 390.297 731.102 391.892C731.102 392.412 731.085 393.001 731.05 393.66C731.015 394.319 730.963 394.977 730.894 395.636C730.859 396.191 730.825 396.728 730.79 397.248C730.755 397.733 730.738 398.149 730.738 398.496C730.738 399.987 731.171 401.183 732.038 402.084C732.905 402.985 734.343 403.679 736.354 404.164V407.44C734.378 407.995 732.939 408.74 732.038 409.676C731.171 410.577 730.738 411.756 730.738 413.212C730.738 413.489 730.755 413.853 730.79 414.304C730.825 414.755 730.859 415.24 730.894 415.76C730.963 416.384 731.015 417.025 731.05 417.684C731.085 418.343 731.102 418.967 731.102 419.556C731.102 421.116 730.929 422.451 730.582 423.56C730.235 424.669 729.681 425.588 728.918 426.316C728.155 427.044 727.15 427.599 725.902 427.98C724.654 428.361 723.146 428.587 721.378 428.656Z" fill="#6F6F6F"/>
</svg>
