<svg width="71" height="71" viewBox="0 0 71 71" fill="none" xmlns="http://www.w3.org/2000/svg">
<g clip-path="url(#clip0_468_300)">
<path d="M35.5 5.91669C19.1612 5.91669 5.91671 19.1611 5.91671 35.5C5.91671 51.8389 19.1612 65.0834 35.5 65.0834C51.8389 65.0834 65.0834 51.8389 65.0834 35.5C65.0834 19.1611 51.8389 5.91669 35.5 5.91669ZM35.5 17.75C36.2846 17.75 37.0371 18.0617 37.5919 18.6165C38.1467 19.1713 38.4584 19.9238 38.4584 20.7084V35.5C38.4582 36.2846 38.1464 37.0369 37.5916 37.5916L28.7166 46.4666C28.1586 47.0054 27.4114 47.3036 26.6357 47.2969C25.86 47.2901 25.118 46.979 24.5695 46.4305C24.021 45.882 23.7099 45.14 23.7032 44.3644C23.6964 43.5887 23.9946 42.8414 24.5335 42.2835L32.5417 34.2753V20.7084C32.5417 19.9238 32.8534 19.1713 33.4082 18.6165C33.963 18.0617 34.7154 17.75 35.5 17.75Z" fill="#FF755E"/>
</g>
<defs>
<clipPath id="clip0_468_300">
<rect width="71" height="71" fill="white" transform="matrix(-1 0 0 1 71 0)"/>
</clipPath>
</defs>
</svg>
