<svg width="358" height="349" viewBox="0 0 358 349" fill="none" xmlns="http://www.w3.org/2000/svg">
<path d="M177.839 65.1778C167.553 65.1778 126.406 121.049 107.118 148.985V275.769H250.703V148.985C230.701 121.049 188.126 65.1778 177.839 65.1778Z" fill="#A7FAFF"/>
<path d="M193.727 16.5537C193.727 25.696 186.584 52.42 177.773 52.42C168.962 52.42 161.819 25.696 161.819 16.5537C161.819 7.41134 168.962 0 177.773 0C186.584 0 193.727 7.41134 193.727 16.5537Z" fill="#A7FAFF"/>
<path d="M177.269 348.704C164.272 282.694 175.103 145.507 322.407 124.843C338.294 186.548 331.507 317.708 177.269 348.704Z" fill="#52A2A7"/>
<path d="M346.233 77.4878C330.636 86.0978 329.626 105.47 331.07 114.08C338.29 111.928 353.599 105.47 357.064 96.8604C360.53 88.2504 351.288 80.3578 346.233 77.4878Z" fill="#52A2A7"/>
<path d="M177.269 348.704C164.272 282.694 175.103 145.507 322.407 124.843C338.294 186.548 331.507 317.708 177.269 348.704Z" fill="#52A2A7"/>
<path d="M346.233 77.4878C330.636 86.0978 329.626 105.47 331.07 114.08C338.29 111.928 353.599 105.47 357.064 96.8604C360.53 88.2504 351.288 80.3578 346.233 77.4878Z" fill="#52A2A7"/>
<path d="M178.325 348.704C191.162 282.694 180.465 145.507 34.9793 124.843C19.289 186.548 25.9916 317.708 178.325 348.704Z" fill="#3BCAD3"/>
<path d="M11.4472 77.4878C26.8515 86.0978 27.8499 105.47 26.4236 114.08C19.292 111.928 4.1729 105.47 0.74971 96.8604C-2.67348 88.2504 6.45502 80.3578 11.4472 77.4878Z" fill="#3BCAD3"/>
</svg>
