<svg width="815" height="387" viewBox="0 0 815 387" fill="none" xmlns="http://www.w3.org/2000/svg">
<path d="M441.603 175.808C437.443 175.808 433.571 175.2 429.987 173.984C426.467 172.832 423.395 171.2 420.771 169.088C418.147 167.04 416.067 164.576 414.531 161.696C413.059 158.88 412.323 155.808 412.323 152.48C412.323 151.264 412.419 149.696 412.611 147.776C412.803 145.856 413.059 143.648 413.379 141.152C413.763 138.656 414.179 136 414.627 133.184L427.299 134.912C426.659 138.944 426.147 142.528 425.763 145.664C425.379 148.8 425.187 151.008 425.187 152.288C425.187 154.72 425.859 156.864 427.203 158.72C428.547 160.576 430.435 162.016 432.867 163.04C435.363 164.128 438.275 164.672 441.603 164.672H468.771C472.931 164.672 476.035 163.616 478.083 161.504C480.131 159.392 481.155 156.32 481.155 152.288V148.64H493.923V152.288C493.923 156.896 492.899 160.96 490.851 164.48C488.803 168 485.891 170.752 482.115 172.736C478.403 174.784 473.955 175.808 468.771 175.808H441.603ZM476.931 152C473.987 152 471.139 151.68 468.387 151.04C465.699 150.4 463.139 149.248 460.707 147.584L468.003 138.368C469.027 139.072 469.923 139.616 470.691 140C471.523 140.32 472.419 140.544 473.379 140.672C474.403 140.8 475.587 140.864 476.931 140.864H498.147V152H476.931ZM498.147 152V140.864C498.467 140.864 498.755 140.992 499.011 141.248C499.267 141.504 499.459 141.888 499.587 142.4C499.715 142.912 499.811 143.52 499.875 144.224C500.003 144.864 500.067 145.6 500.067 146.432C500.067 147.264 500.003 148.032 499.875 148.736C499.811 149.44 499.715 150.048 499.587 150.56C499.459 151.008 499.267 151.36 499.011 151.616C498.755 151.872 498.467 152 498.147 152ZM438.339 195.584V184.64H450.723V195.584H438.339ZM455.811 195.584V184.64H468.195V195.584H455.811ZM515.516 150.464C512.252 147.392 509.788 144.128 508.124 140.672C506.524 137.216 505.724 133.536 505.724 129.632C505.724 125.856 506.428 122.4 507.836 119.264C509.244 116.064 511.164 113.312 513.596 111.008C516.028 108.704 518.844 106.944 522.044 105.728C525.308 104.448 528.732 103.808 532.316 103.808C534.236 103.808 536.252 104 538.364 104.384C540.476 104.768 542.492 105.28 544.412 105.92L540.572 116.384C539.228 115.936 537.884 115.584 536.54 115.328C535.26 115.072 534.012 114.944 532.796 114.944C529.98 114.944 527.484 115.584 525.308 116.864C523.132 118.08 521.436 119.776 520.22 121.952C519.068 124.128 518.492 126.624 518.492 129.44C518.492 132 519.004 134.4 520.028 136.64C521.116 138.88 522.652 140.896 524.636 142.688L515.516 150.464ZM497.468 152V140.864H545.276V152H497.468ZM497.468 152C497.084 152 496.796 151.872 496.604 151.616C496.348 151.36 496.156 151.008 496.028 150.56C495.836 150.048 495.708 149.44 495.644 148.736C495.58 148.032 495.548 147.264 495.548 146.432C495.548 145.28 495.612 144.32 495.74 143.552C495.868 142.72 496.092 142.08 496.412 141.632C496.668 141.12 497.02 140.864 497.468 140.864V152ZM601.672 152V140.864H611.752V152H601.672ZM575.752 175.808C573.384 175.808 570.888 175.616 568.264 175.232C565.704 174.912 562.952 174.464 560.008 173.888L561.928 163.616C565.128 164 567.848 164.288 570.088 164.48C572.328 164.672 574.216 164.768 575.752 164.768C580.36 164.768 583.688 163.936 585.736 162.272C587.784 160.608 588.808 158.112 588.808 154.784V112.64L591.976 114.944H579.976C577.352 114.944 575.24 115.264 573.64 115.904C572.04 116.48 570.856 117.728 570.088 119.648C569.384 121.504 569.032 124.352 569.032 128.192C569.032 131.84 569.352 134.592 569.992 136.448C570.696 138.24 571.848 139.424 573.448 140C575.048 140.576 577.224 140.864 579.976 140.864H588.808V152H579.976C574.536 152 570.056 151.136 566.536 149.408C563.016 147.68 560.392 145.056 558.664 141.536C557 138.016 556.168 133.568 556.168 128.192C556.168 122.816 557 118.336 558.664 114.752C560.392 111.104 563.016 108.384 566.536 106.592C570.056 104.736 574.536 103.808 579.976 103.808H601.672V154.784C601.672 159.136 600.584 162.88 598.408 166.016C596.296 169.216 593.288 171.648 589.384 173.312C585.544 174.976 581 175.808 575.752 175.808ZM611.752 152V140.864C612.136 140.864 612.424 140.992 612.616 141.248C612.872 141.504 613.064 141.888 613.192 142.4C613.384 142.912 613.512 143.52 613.576 144.224C613.64 144.864 613.672 145.6 613.672 146.432C613.672 147.264 613.64 148.032 613.576 148.736C613.512 149.44 613.384 150.048 613.192 150.56C613.064 151.008 612.872 151.36 612.616 151.616C612.424 151.872 612.136 152 611.752 152ZM678.038 152V140.864H688.118V152H678.038ZM611.126 152V140.864H678.134L667.286 150.272V130.112C667.286 126.464 666.806 123.552 665.846 121.376C664.886 119.136 663.478 117.504 661.622 116.48C659.83 115.456 657.654 114.944 655.094 114.944C652.342 114.944 649.75 115.488 647.318 116.576C644.886 117.664 642.582 119.072 640.406 120.8C638.294 122.528 636.342 124.384 634.55 126.368C632.758 128.352 631.158 130.272 629.75 132.128C628.342 133.92 627.126 135.456 626.102 136.736L623.222 127.424C625.846 124.096 628.278 120.992 630.518 118.112C632.822 115.232 635.222 112.736 637.718 110.624C640.214 108.448 642.966 106.784 645.974 105.632C648.982 104.416 652.47 103.808 656.438 103.808C660.726 103.808 664.342 104.544 667.286 106.016C670.294 107.424 672.758 109.376 674.678 111.872C676.598 114.368 677.974 117.184 678.806 120.32C679.638 123.456 680.054 126.72 680.054 130.112V152H611.126ZM617.75 140.864V84.128H630.518V140.864H617.75ZM611.126 152C610.742 152 610.454 151.872 610.262 151.616C610.006 151.36 609.814 151.008 609.686 150.56C609.494 150.048 609.366 149.44 609.302 148.736C609.238 148.032 609.206 147.264 609.206 146.432C609.206 145.28 609.27 144.32 609.398 143.552C609.526 142.72 609.75 142.08 610.07 141.632C610.326 141.12 610.678 140.864 611.126 140.864V152ZM688.118 152V140.864C688.502 140.864 688.822 140.992 689.078 141.248C689.334 141.504 689.526 141.888 689.654 142.4C689.782 142.912 689.878 143.52 689.942 144.224C690.006 144.864 690.038 145.6 690.038 146.432C690.038 147.264 690.006 148.032 689.942 148.736C689.878 149.44 689.782 150.048 689.654 150.56C689.526 151.008 689.334 151.36 689.078 151.616C688.822 151.872 688.502 152 688.118 152ZM687.454 152V140.864H710.206L702.718 147.104V103.808H715.486V152H687.454ZM687.454 152C687.07 152 686.782 151.872 686.59 151.616C686.334 151.36 686.142 151.008 686.014 150.56C685.822 150.048 685.694 149.44 685.63 148.736C685.566 148.032 685.534 147.264 685.534 146.432C685.534 145.28 685.598 144.32 685.726 143.552C685.854 142.72 686.078 142.08 686.398 141.632C686.654 141.12 687.006 140.864 687.454 140.864V152ZM694.27 94.976V84.032H706.654V94.976H694.27ZM711.742 94.976V84.032H724.126V94.976H711.742Z" fill="black"/>
<path d="M177.839 65.1778C167.553 65.1778 126.406 121.049 107.118 148.985V275.769H250.703V148.985C230.701 121.049 188.126 65.1778 177.839 65.1778Z" fill="#A7FAFF"/>
<path d="M193.727 16.5537C193.727 25.696 186.584 52.42 177.773 52.42C168.962 52.42 161.819 25.696 161.819 16.5537C161.819 7.41134 168.962 0 177.773 0C186.584 0 193.727 7.41134 193.727 16.5537Z" fill="#A7FAFF"/>
<path d="M177.269 348.704C164.272 282.694 175.103 145.507 322.407 124.843C338.294 186.548 331.507 317.708 177.269 348.704Z" fill="#52A2A7"/>
<path d="M346.233 77.4878C330.636 86.0978 329.626 105.47 331.07 114.08C338.29 111.928 353.599 105.47 357.064 96.8604C360.53 88.2504 351.288 80.3578 346.233 77.4878Z" fill="#52A2A7"/>
<path d="M177.269 348.704C164.272 282.694 175.103 145.507 322.407 124.843C338.294 186.548 331.507 317.708 177.269 348.704Z" fill="#52A2A7"/>
<path d="M346.233 77.4878C330.636 86.0978 329.626 105.47 331.07 114.08C338.29 111.928 353.599 105.47 357.064 96.8604C360.53 88.2504 351.288 80.3578 346.233 77.4878Z" fill="#52A2A7"/>
<path d="M178.325 348.704C191.162 282.694 180.465 145.507 34.9793 124.843C19.289 186.548 25.9916 317.708 178.325 348.704Z" fill="#3BCAD3"/>
<path d="M11.4472 77.4878C26.8515 86.0978 27.8499 105.47 26.4236 114.08C19.292 111.928 4.1729 105.47 0.74971 96.8604C-2.67348 88.2504 6.45502 80.3578 11.4472 77.4878Z" fill="#3BCAD3"/>
<path d="M420.913 294V239.664H403.249V228.432H451.249V239.664H434.161V294H420.913ZM468.347 295.056C463.355 295.056 459.579 293.808 457.019 291.312C454.523 288.752 453.275 284.912 453.275 279.792C453.275 276.208 453.915 273.424 455.195 271.44C456.475 269.392 458.363 267.92 460.859 267.024C463.419 266.064 466.523 265.488 470.171 265.296L481.883 264.24V261.36C481.883 259.056 481.307 257.456 480.155 256.56C479.003 255.6 477.307 255.12 475.067 255.12C473.275 255.12 471.195 255.184 468.827 255.312C466.523 255.44 464.219 255.6 461.915 255.792C459.675 255.984 457.723 256.176 456.059 256.368L455.675 247.344C457.339 246.96 459.323 246.576 461.627 246.192C463.995 245.744 466.459 245.392 469.019 245.136C471.579 244.88 473.947 244.752 476.123 244.752C480.219 244.752 483.643 245.264 486.395 246.288C489.147 247.312 491.227 249.008 492.635 251.376C494.043 253.68 494.747 256.816 494.747 260.784V282.768C494.875 283.664 495.355 284.368 496.187 284.88C497.019 285.328 497.979 285.648 499.067 285.84L498.779 294.672C497.755 294.672 496.731 294.672 495.707 294.672C494.747 294.736 493.819 294.736 492.923 294.672C492.027 294.672 491.227 294.608 490.523 294.48C489.051 294.288 487.771 293.904 486.683 293.328C485.659 292.752 484.827 292.144 484.187 291.504C483.163 291.952 481.787 292.464 480.059 293.04C478.331 293.616 476.443 294.096 474.395 294.48C472.411 294.864 470.395 295.056 468.347 295.056ZM471.419 285.552C472.635 285.552 473.915 285.424 475.259 285.168C476.603 284.912 477.851 284.624 479.003 284.304C480.219 283.92 481.179 283.568 481.883 283.248V272.208L472.091 273.072C469.979 273.264 468.443 273.904 467.483 274.992C466.587 276.016 466.139 277.488 466.139 279.408C466.139 281.328 466.555 282.832 467.387 283.92C468.283 285.008 469.627 285.552 471.419 285.552ZM521.714 295.152C518.194 295.152 515.346 294.64 513.17 293.616C510.994 292.592 509.426 290.832 508.466 288.336C507.57 285.776 507.122 282.224 507.122 277.68V256.464H501.458V245.808H507.122V233.04H519.89V245.808H532.178V256.464H519.89V274.32C519.89 276.816 519.986 278.768 520.178 280.176C520.434 281.584 520.946 282.576 521.714 283.152C522.482 283.728 523.666 284.016 525.266 284.016C525.714 284.016 526.386 283.984 527.282 283.92C528.178 283.856 529.074 283.792 529.97 283.728C530.866 283.664 531.602 283.6 532.178 283.536L532.562 293.808C531.602 294 530.418 294.192 529.01 294.384C527.666 294.576 526.322 294.736 524.978 294.864C523.698 295.056 522.61 295.152 521.714 295.152ZM551.254 295.056C546.262 295.056 542.486 293.808 539.926 291.312C537.43 288.752 536.182 284.912 536.182 279.792C536.182 276.208 536.822 273.424 538.102 271.44C539.382 269.392 541.27 267.92 543.766 267.024C546.326 266.064 549.43 265.488 553.078 265.296L564.79 264.24V261.36C564.79 259.056 564.214 257.456 563.062 256.56C561.91 255.6 560.214 255.12 557.974 255.12C556.182 255.12 554.102 255.184 551.734 255.312C549.43 255.44 547.126 255.6 544.822 255.792C542.582 255.984 540.63 256.176 538.966 256.368L538.582 247.344C540.246 246.96 542.23 246.576 544.534 246.192C546.902 245.744 549.366 245.392 551.926 245.136C554.486 244.88 556.854 244.752 559.03 244.752C563.126 244.752 566.55 245.264 569.302 246.288C572.054 247.312 574.134 249.008 575.542 251.376C576.95 253.68 577.654 256.816 577.654 260.784V282.768C577.782 283.664 578.262 284.368 579.094 284.88C579.926 285.328 580.886 285.648 581.974 285.84L581.686 294.672C580.662 294.672 579.638 294.672 578.614 294.672C577.654 294.736 576.726 294.736 575.83 294.672C574.934 294.672 574.134 294.608 573.43 294.48C571.958 294.288 570.678 293.904 569.59 293.328C568.566 292.752 567.734 292.144 567.094 291.504C566.07 291.952 564.694 292.464 562.966 293.04C561.238 293.616 559.35 294.096 557.302 294.48C555.318 294.864 553.302 295.056 551.254 295.056ZM554.326 285.552C555.542 285.552 556.822 285.424 558.166 285.168C559.51 284.912 560.758 284.624 561.91 284.304C563.126 283.92 564.086 283.568 564.79 283.248V272.208L554.998 273.072C552.886 273.264 551.35 273.904 550.39 274.992C549.494 276.016 549.046 277.488 549.046 279.408C549.046 281.328 549.462 282.832 550.294 283.92C551.19 285.008 552.534 285.552 554.326 285.552ZM593.588 294L584.372 245.808H598.004L604.244 283.152H605.684L613.46 246.864H625.748L633.812 283.152H635.252L641.492 245.808H654.26L645.332 294H626.036L619.22 262.992L612.404 294H593.588ZM680.167 295.056C674.855 295.056 670.631 294.16 667.495 292.368C664.423 290.576 662.215 287.856 660.871 284.208C659.527 280.56 658.855 275.984 658.855 270.48C658.855 264.528 659.687 259.664 661.351 255.888C663.079 252.112 665.575 249.328 668.839 247.536C672.103 245.68 676.135 244.752 680.935 244.752C688.039 244.752 693.383 246.544 696.967 250.128C700.615 253.712 702.439 259.376 702.439 267.12L701.863 274.224H671.719C671.783 277.808 672.519 280.496 673.927 282.288C675.335 284.08 677.767 284.976 681.223 284.976C683.207 284.976 685.383 284.944 687.751 284.88C690.119 284.752 692.455 284.624 694.759 284.496C697.127 284.368 699.143 284.24 700.807 284.112L701.095 293.04C699.495 293.296 697.479 293.584 695.047 293.904C692.615 294.224 690.087 294.48 687.463 294.672C684.903 294.928 682.471 295.056 680.167 295.056ZM671.719 266.064H689.671C689.671 261.712 688.967 258.672 687.559 256.944C686.215 255.216 684.007 254.352 680.935 254.352C678.887 254.352 677.191 254.736 675.847 255.504C674.503 256.272 673.479 257.52 672.775 259.248C672.071 260.976 671.719 263.248 671.719 266.064ZM710.289 294V245.808H723.057V294H710.289ZM710.289 238.128V227.184H723.153V238.128H710.289Z" fill="black"/>
</svg>
