<svg width="73" height="73" viewBox="0 0 73 73" fill="none" xmlns="http://www.w3.org/2000/svg">
<path d="M25.5729 9.2077C28.3474 6.21213 32.2227 4.5625 36.5 4.5625C40.8002 4.5625 44.6883 6.20215 47.45 9.17918C50.2417 12.189 51.6019 16.2796 51.2825 20.6966C50.6495 29.411 44.0182 36.5 36.5 36.5C28.9819 36.5 22.362 29.4124 21.719 20.6995C21.3953 16.3223 22.7641 12.2403 25.5729 9.2077ZM11.4063 68.4375H61.5938C62.2507 68.446 62.9012 68.308 63.4981 68.0335C64.095 67.759 64.6231 67.3549 65.0442 66.8506C65.9709 65.7428 66.3445 64.23 66.0679 62.7002C64.8645 56.0247 61.109 50.417 55.2063 46.4805C49.9623 42.9859 43.3196 41.0625 36.5 41.0625C29.6805 41.0625 23.0378 42.9873 17.7938 46.4805C11.8911 50.4156 8.13555 56.0232 6.93219 62.6987C6.65559 64.2286 7.02914 65.7413 7.9559 66.8492C8.3768 67.3537 8.9049 67.7581 9.50177 68.0329C10.0986 68.3076 10.7493 68.4459 11.4063 68.4375Z" fill="#FFD653"/>
</svg>
